<svg xmlns="http://www.w3.org/2000/svg" viewBox="0 0 32 32" role="img" aria-label="WhatsApp">
  <path fill="#fff" d="M16 3.2C8.95 3.2 3.2 8.78 3.2 15.66c0 2.43.72 4.78 2.08 6.8L3.8 28.8l6.5-1.44a13.12 13.12 0 0 0 5.7 1.31c7.06 0 12.8-5.6 12.8-12.48S23.06 3.2 16 3.2Zm0 22.72c-1.82 0-3.58-.48-5.12-1.38l-.52-.3-3.32.73.75-3.22-.34-.52a10.17 10.17 0 0 1-1.6-5.47C5.85 10.1 10.4 5.94 16 5.94s10.15 4.18 10.15 9.72S21.6 25.92 16 25.92Zm5.72-7.3c-.31-.16-1.85-.9-2.13-1-.29-.1-.5-.15-.72.15-.2.3-.82 1-.99 1.2-.18.2-.36.23-.67.08-.31-.16-1.31-.48-2.5-1.53-.92-.82-1.55-1.83-1.73-2.14-.18-.3-.02-.47.14-.62.14-.14.31-.36.47-.54.16-.18.2-.3.31-.51.1-.2.05-.38-.03-.54-.08-.15-.72-1.7-.99-2.33-.26-.63-.52-.53-.72-.54h-.62c-.2 0-.54.08-.82.38-.28.3-1.07 1.02-1.07 2.5s1.1 2.9 1.25 3.1c.16.2 2.16 3.24 5.23 4.54.73.31 1.3.5 1.74.64.73.23 1.4.2 1.93.12.59-.09 1.85-.74 2.11-1.46.26-.72.26-1.34.18-1.46-.08-.13-.28-.2-.59-.35Z"/>
</svg>
